<?xml version="1.0" encoding="UTF-8"?>
<svg version="1.1" xmlns="http://www.w3.org/2000/svg" width="496" height="420">
<path d="M0 0 C5.25113614 2.93086668 7.46108796 7.76349393 10 13 C10.350625 13.69480469 10.70125 14.38960937 11.0625 15.10546875 C27.78970876 52.0229412 22.27430257 106.33777367 8.76367188 143.390625 C6.27613886 149.85024495 3.65294121 156.24950078 0.9362793 162.6159668 C-0.84763706 166.64467088 -0.84763706 166.64467088 -0.32592773 170.80493164 C0.05104248 171.41715576 0.4280127 172.02937988 0.81640625 172.66015625 C1.24397217 173.36180908 1.67153809 174.06346191 2.11206055 174.78637695 C2.59070557 175.53749756 3.06935059 176.28861816 3.5625 177.0625 C4.05339111 177.85035889 4.54428223 178.63821777 5.05004883 179.44995117 C9.37681054 186.27476226 14.1335674 192.74777916 18.98510742 199.20507812 C32 216.58968328 32 216.58968328 32 221 C32.66 221 33.32 221 34 221 C34.27199219 220.10667969 34.54398438 219.21335938 34.82421875 218.29296875 C35.90483669 215.26652049 37.06540909 212.98842405 38.8125 210.3125 C39.42996094 209.36503906 40.04742187 208.41757813 40.68359375 207.44140625 C42.98066681 204.00354657 45.33408876 200.60484994 47.68383789 197.20288086 C52.3406863 190.44853468 56.996153 183.68892441 61.375 176.75 C61.76220215 176.16702148 62.1494043 175.58404297 62.54833984 174.98339844 C64.34492732 172.06320402 65.00045159 170.12779902 64.98828125 166.68359375 C63.72485179 161.97444756 61.84192351 157.73516986 59.8125 153.3125 C42.11652245 113.18287306 36.87385252 62.32375015 50.9375 20.19140625 C53.55967513 13.88726022 57.13493314 7.23614975 62.5625 3 C66.80218947 1.26064022 68.89648404 0.6990411 73.4375 1.9375 C77.99161721 4.11555606 80.38816345 7.81192389 83 12 C83.36996094 12.58523437 83.73992187 13.17046875 84.12109375 13.7734375 C102.30112929 46.17210006 96.18035133 98.21926849 86.75195312 132.42675781 C83.6084649 143.18401947 79.98654045 153.87553109 74.75 163.80859375 C73.45997283 167.57789188 74.58219172 170.14266251 76.27734375 173.62109375 C80.3331133 180.5015875 84.72979343 186.99794483 89.4296875 193.44921875 C92.78040439 198.04976579 95.9780065 202.75350952 99.1875 207.453125 C100.90492937 210.01567483 100.90492937 210.01567483 103 212 C104.03447266 210.49373047 104.03447266 210.49373047 105.08984375 208.95703125 C106.0390387 207.57550448 106.98825933 206.19399536 107.9375 204.8125 C108.43314453 204.0908667 108.92878906 203.3692334 109.43945312 202.62573242 C111.82761594 199.15089437 114.2195369 195.67892601 116.62890625 192.21875 C117.03052979 191.6414917 117.43215332 191.0642334 117.84594727 190.46948242 C118.93769984 188.90195022 120.03129449 187.33570146 121.125 185.76953125 C121.74375 184.85558594 122.3625 183.94164062 123 183 C123.598125 182.19949219 124.19625 181.39898437 124.8125 180.57421875 C127.46286801 174.82884863 124.27928248 168.59018252 122.25 163 C118.51688542 152.20002846 116.08248056 141.22415296 114 130 C113.75008301 128.68563965 113.75008301 128.68563965 113.49511719 127.34472656 C108.62175074 100.61688447 105.22240567 59.99016926 119.4140625 35.56640625 C121.52095666 32.53572004 123.35918152 30.40051155 126.5 28.4375 C129.85686652 27.85004836 131.74426454 27.87045912 135 29 C145.11623508 36.72839279 147.11200489 52.0735528 148.73876953 63.90966797 C152.8790252 97.03945208 150.71304191 140.35331865 136.25390625 170.83984375 C134.88056622 174.3010029 134.73483955 175.55626729 136 179 C139.48085887 185.54656943 144.04053413 191.57065477 148.3125 197.625 C148.7448999 198.24109131 149.1772998 198.85718262 149.62280273 199.49194336 C151.84588958 202.75384323 151.84588958 202.75384323 155 205 C155.23847656 204.29875 155.47695313 203.5975 155.72265625 202.875 C157.22394787 199.49594608 159.17050977 196.9184242 161.4375 194 C166.83755645 187.96594125 166.83755645 187.96594125 168.83203125 180.62109375 C167.81679803 177.42287079 166.76462016 174.24050469 165.6875 171.0625 C156.20557284 141.50606718 150.57951192 99.26882579 162.9375 69.6875 C167.0226411 61.81122416 167.0226411 61.81122416 171.4375 60 C175.06588992 60 176.23697235 60.5823508 179 63 C194.37302889 85.55923766 189.83953542 127.34693943 185.28515625 152.87109375 C183.24481613 163.1183159 180.30122985 173.09631044 177 183 C178.71608441 185.84472315 178.71608441 185.84472315 181.125 188.8125 C181.74652954 189.6166333 181.74652954 189.6166333 182.38061523 190.43701172 C184.54463305 193.22107375 186.76956848 195.94659014 189.0625 198.625 C191 201 191 201 191 203 C196.09696439 198.38087602 200.87741706 193.15938063 204 187 C203.98126865 184.46190275 203.31141236 183.00221132 202.2109375 180.72265625 C200.56627215 177.02481191 199.75951319 173.25084952 198.875 169.3125 C198.70516602 168.58724121 198.53533203 167.86198242 198.36035156 167.11474609 C196.31584618 158.2990818 195.7866169 149.98645246 195.75 140.9375 C195.7190625 139.06674805 195.7190625 139.06674805 195.6875 137.15820312 C195.64514607 126.97737721 195.87542852 114.9881559 203 107 C205.22883111 105.39802764 206.27516047 104.95469753 209 105.125 C212.66110218 106.7267322 214.62438403 109.15456596 216.23046875 112.76953125 C216.54628906 113.77371094 216.86210937 114.77789062 217.1875 115.8125 C217.51105469 116.80894531 217.83460938 117.80539063 218.16796875 118.83203125 C222.9904182 137.19356414 221.27773252 159.73887669 214.64355469 177.48144531 C212.17498968 183.57641507 212.17498968 183.57641507 213.16796875 189.85546875 C214.96981246 192.13285059 216.89354262 194.01032773 219 196 C220.24609375 198.234375 220.24609375 198.234375 221 200 C225.23596127 196.97431338 228.60911514 193.64424095 231 189 C231 186.37313274 230.23649194 184.59765625 229.28125 182.18359375 C225.64949759 172.32338595 224.53704795 161.07404233 228 151 C229.71067419 147.80674152 231.04023308 145.71208514 233.9375 143.5625 C236.70841899 142.80679482 238.29931652 143.03052388 241 144 C245.36157888 148.36157888 246.24716642 154.09107042 246.33007812 160.06347656 C246.19218755 177.21553231 239.97158095 188.974663 228.37109375 201.78125 C226.75570087 203.91586602 226.75570087 203.91586602 227.16015625 206.4609375 C228.01985972 209.06004102 228.97023528 211.5884472 230 214.125 C233.68360566 224.16753076 234.19581745 234.9569379 230.18359375 245.0546875 C228.55188608 247.90846911 227.12090027 248.95369777 224.0625 250.125 C221 250 221 250 218.3125 248.625 C211.82986817 241.26633684 212.18762924 231.35786132 212.76660156 222.02246094 C213.20877124 218.19094042 214.47112739 214.79975628 216.02734375 211.296875 C217.12454238 208.70589993 217.88784706 206.82970505 218 204 C216.22850012 201.02569237 216.22850012 201.02569237 213.6875 198.25 C212.86636719 197.28578125 212.04523438 196.3215625 211.19921875 195.328125 C209.22150116 192.96779208 209.22150116 192.96779208 207 192 C206.75636719 192.55042969 206.51273437 193.10085937 206.26171875 193.66796875 C204.19936511 197.47981124 201.31323078 200.69776747 198.58203125 204.05078125 C196.08262331 208.71017137 197.49062102 212.19193409 198.8671875 217.078125 C199.36605469 218.64820313 199.36605469 218.64820313 199.875 220.25 C206.6958815 243.82436051 209.71706066 275.97429115 199.09375 298.9609375 C197.59479507 301.53575523 196.2426269 302.88179715 193.5625 304.1875 C191 304 191 304 188.4375 302.375 C177.43292113 289.60553584 179.02403352 262.80314955 180 247 C180.9368025 235.99667944 182.69418322 225.37742484 186.46166992 214.97192383 C187.69909015 211.49567319 188.222522 209.48651431 187 206 C185.943296 204.27132628 185.943296 204.27132628 184.6015625 202.65234375 C184.12203125 202.04712891 183.6425 201.44191406 183.1484375 200.81835938 C182.39433594 199.88733398 182.39433594 199.88733398 181.625 198.9375 C181.13 198.31294922 180.635 197.68839844 180.125 197.04492188 C177.86509902 194.21400314 175.59745681 191.53040419 173 189 C171.05847229 191.55947051 169.12251487 194.12310313 167.1875 196.6875 C166.64029297 197.40873047 166.09308594 198.12996094 165.52929688 198.87304688 C160.2256739 204.87109021 160.2256739 204.87109021 158.22265625 212 C158.63837891 212.99 158.63837891 212.99 159.0625 214 C159.36414063 214.79019531 159.66578125 215.58039063 159.9765625 216.39453125 C160.31429688 217.25433594 160.65203125 218.11414063 161 219 C163.83230859 226.95579365 165.67536723 234.89266961 167.1875 243.1875 C167.35435303 244.10168701 167.52120605 245.01587402 167.69311523 245.95776367 C171.9684428 270.35900343 171.34403518 296.78153196 166.125 321 C165.97579102 321.69907471 165.82658203 322.39814941 165.67285156 323.1184082 C164.26023649 329.05413583 162.24137335 335.04598221 157.5625 339.125 C155 340 155 340 152.4375 339.5625 C145.45095497 335.08394549 143.8782661 326.6132386 142 319 C135.60441606 285.09205201 136.01450996 245.07194757 149.3125 212.81640625 C150.28042071 210.06335855 150.28042071 210.06335855 149.0859375 207.82421875 C148.52132813 207.11910156 147.95671875 206.41398438 147.375 205.6875 C146.41013672 204.42873047 146.41013672 204.42873047 145.42578125 203.14453125 C144.62527344 202.10683594 143.82476562 201.06914062 143 200 C140.82979809 196.97539888 138.69780049 193.92430014 136.5625 190.875 C135.50201748 189.37189085 134.44087363 187.86924795 133.37890625 186.3671875 C132.69163452 185.39434814 132.69163452 185.39434814 131.99047852 184.40185547 C131.66362061 183.93924316 131.3367627 183.47663086 131 183 C125.30990241 189.83919272 120.52229773 197.36553636 115.55615234 204.734375 C114.2400511 206.65050609 112.88748479 208.5194462 111.48828125 210.375 C108.07744329 214.82441852 108.07744329 214.82441852 107.078125 220.1328125 C107.845969 222.55241393 108.89150802 224.71594168 110 227 C125.10294619 267.49414095 132.47097835 325.36384762 114 366 C112.45039194 368.98465366 110.88051762 371.35428708 108.125 373.375 C105.15938245 374.24724046 103.08074453 374.44010636 100 374 C89.350608 366.20776195 87.66020444 350.92779968 85.63623047 338.82470703 C79.72737149 300.3510783 83.25544596 256.89612484 98.30078125 220.88671875 C99.26593712 218.06479605 99.26593712 218.06479605 98.15625 215.67578125 C97.33640625 214.50595703 97.33640625 214.50595703 96.5 213.3125 C95.8503125 212.36890625 95.200625 211.4253125 94.53125 210.453125 C90.78248932 205.29547579 86.96019339 200.19038911 83.14794922 195.07958984 C71 178.67609388 71 178.67609388 71 174 C67.88632142 176.69658145 66.08171422 180.09910634 64.0625 183.625 C60.65680517 189.45589753 56.96305011 194.97224479 53 200.4375 C48.94267389 206.06254692 45.21220853 211.76494155 41.8125 217.8125 C41.43802734 218.47628662 41.06355469 219.14007324 40.67773438 219.82397461 C38.06709112 224.18878093 38.06709112 224.18878093 37 229 C38.07505196 231.57713845 39.21503362 233.96891429 40.5 236.4375 C60.45379921 276.99982559 66.05378741 330.32776317 52.0456543 373.67358398 C49.23697173 381.67755342 45.10502903 388.26331398 38 393 C34.35959446 394.21346851 32.64040554 394.21346851 29 393 C17.79871448 385.53247632 14.05937572 372.15251458 11.45800781 359.56323242 C9.13331761 346.55314582 8.59691079 333.75060682 8.625 320.5625 C8.62521149 319.64201874 8.62542297 318.72153748 8.62564087 317.77316284 C8.65981199 302.8274266 9.64563866 288.61365968 13 274 C13.27287842 272.74171387 13.27287842 272.74171387 13.55126953 271.45800781 C15.99111252 260.37732677 19.74038986 250.03369055 24.1328125 239.5859375 C24.59602905 238.44620483 24.59602905 238.44620483 25.06860352 237.28344727 C25.70041636 235.73447072 26.35816719 234.19587047 27.03881836 232.66772461 C28.75465328 228.43353747 29.27804734 226.77016654 27.67578125 222.33203125 C26.92036045 221.13777401 26.13034974 219.96490303 25.3125 218.8125 C24.68371948 217.85114136 24.68371948 217.85114136 24.04223633 216.87036133 C22.72942596 214.88713825 21.37388928 212.94130059 20 211 C19.59491211 210.42088867 19.18982422 209.84177734 18.77246094 209.24511719 C16.77524342 206.39969864 14.74575728 203.57961499 12.69921875 200.76953125 C9.52372092 196.37808782 6.50797338 191.88220706 3.5 187.375 C2.98332764 186.60438232 2.46665527 185.83376465 1.93432617 185.03979492 C1.45068604 184.31252197 0.9670459 183.58524902 0.46875 182.8359375 C-0.17416992 181.86986572 -0.17416992 181.86986572 -0.83007812 180.88427734 C-2 179 -2 179 -3.02929688 176.82275391 C-3.86732757 174.82498373 -3.86732757 174.82498373 -6 174 C-6.24878906 174.85851562 -6.49757812 175.71703125 -6.75390625 176.6015625 C-8.09564796 180.26085806 -9.79904731 183.11898343 -11.9375 186.375 C-12.3286499 186.97441406 -12.7197998 187.57382813 -13.12280273 188.19140625 C-15.73556978 192.16925053 -18.43644387 196.08211728 -21.15893555 199.98535156 C-31.8541662 213.91842502 -31.8541662 213.91842502 -37 230 C-35.87576827 233.13886754 -35.87576827 233.13886754 -34.0625 236.375 C-25.97093733 252.51267873 -20.95940883 270.23548325 -18 288 C-17.66355469 289.92972656 -17.66355469 289.92972656 -17.3203125 291.8984375 C-13.48345059 318.23087334 -11.89267256 355.5122658 -28.515625 378.26171875 C-32.11951232 382.48206048 -35.22816664 384.85234722 -40.75 385.3125 C-45.97897692 385.20867555 -48.88293016 383.15497135 -52.52734375 379.4453125 C-69.06429411 359.83661309 -67.48066266 324.00711426 -65.50390625 300.26171875 C-63.22740171 277.06092941 -57.93361942 254.29050066 -47.69140625 233.234375 C-45.97550885 229.37052887 -45.52662639 227.11225171 -47 223 C-48.41192517 220.29306067 -50.04364219 217.77955657 -51.75 215.25 C-52.23154541 214.52135742 -52.71309082 213.79271484 -53.20922852 213.04199219 C-60.061204 202.77114022 -67.18556146 192.56562597 -75 183 C-79.37321456 189.30651981 -83.70162722 195.6422538 -88 202 C-88.46760742 202.68610352 -88.93521484 203.37220703 -89.41699219 204.07910156 C-90.58924642 205.81164436 -91.73661857 207.55758346 -92.875 209.3125 C-93.83019531 210.76076172 -93.83019531 210.76076172 -94.8046875 212.23828125 C-96.77999825 216.80215281 -95.38533744 219.9220307 -93.765625 224.453125 C-93.26272512 225.71966904 -92.75738906 226.98524768 -92.25 228.25 C-78.50356774 263.99737069 -73.77013839 311.66593692 -88.1953125 348.01171875 C-90.34685262 352.6463256 -92.32491977 356.55114845 -97 359 C-100.5 359.5625 -100.5 359.5625 -104 359 C-114.13487149 351.45777005 -116.26990089 336.09366125 -118.1875 324.375 C-118.47648159 322.25239186 -118.74801109 320.12731692 -119 318 C-119.16822266 316.60394531 -119.16822266 316.60394531 -119.33984375 315.1796875 C-122.37789113 283.966872 -118.94864751 252.4323571 -107.234375 223.28515625 C-105.04297939 218.05311953 -105.04297939 218.05311953 -105.94140625 212.73828125 C-112.14245517 203.4591213 -119.06053484 194.73457738 -126 186 C-127.88898449 188.56840126 -129.75984871 191.1445007 -131.59765625 193.75 C-133.19856166 195.98388395 -134.89630156 198.03104923 -136.74609375 200.0625 C-139.52372816 203.25806668 -141.46152477 206.01517027 -143 210 C-142.29627697 214.23622745 -140.80284239 217.54613578 -138.98046875 221.3984375 C-136.50668929 226.73189173 -135.36784214 232.26443181 -134.1875 238 C-133.9817334 238.96728027 -133.7759668 239.93456055 -133.56396484 240.93115234 C-128.73253433 264.27161124 -126.16302395 300.96384656 -139.3125 322.375 C-142 325 -142 325 -145.5 326.25 C-149 326 -149 326 -151.6875 324.1875 C-165.90085253 304.59612219 -164.18486832 269.0313498 -160.75 246.4375 C-158.92533466 235.37581132 -156.9933927 223.75351804 -151.63671875 213.796875 C-150.7805461 211.38068225 -151.04911242 210.37943032 -152 208 C-158.22324762 197.71556079 -158.22324762 197.71556079 -167 190 C-167.24363281 190.54785156 -167.48726562 191.09570312 -167.73828125 191.66015625 C-169.82070347 195.5219857 -172.69505658 198.817418 -175.41796875 202.24609375 C-177.2282999 204.82775487 -177.2282999 204.82775487 -176.890625 207.46484375 C-175.86255969 210.39122264 -174.74909958 213.25885147 -173.5625 216.125 C-166.83941774 233.47677012 -166.94325963 253.62118613 -173.8046875 270.9765625 C-175.23252351 273.39361823 -176.59810693 274.56246925 -179 276 C-182.4375 276.3125 -182.4375 276.3125 -186 275 C-195.95828708 261.49635416 -195.14394402 241.33077015 -192.7734375 225.61328125 C-191.73349804 220.75497823 -190.04222543 216.31413886 -188.12109375 211.7421875 C-187.75113281 210.83726562 -187.38117188 209.93234375 -187 209 C-186.55914062 207.98679688 -186.55914062 207.98679688 -186.109375 206.953125 C-185.93025317 203.75452095 -187.79645596 202.24058583 -189.8125 199.875 C-190.54082031 199.00617188 -191.26914063 198.13734375 -192.01953125 197.2421875 C-193.30322213 195.788857 -194.62886328 194.37113672 -196 193 C-197.13347055 194.22135998 -198.25641587 195.45249181 -199.375 196.6875 C-200.00148438 197.37199219 -200.62796875 198.05648437 -201.2734375 198.76171875 C-203.14279067 201.18511098 -204.23104031 203.03336263 -205 206 C-204.42402232 208.58912706 -204.42402232 208.58912706 -203.1875 211.0625 C-199.05335542 220.21970078 -198.26206386 231.52296877 -201.25 241.25 C-202.61672812 244.55925374 -203.91015441 247.02593198 -207 249 C-212.89502333 249.72395023 -212.89502333 249.72395023 -215.8125 247.8125 C-220.74634275 240.28189791 -220.9009288 230.71860736 -219.5390625 222.07421875 C-216.89194651 210.06876915 -210.61182865 200.0205068 -202.23046875 191.12109375 C-200.46304315 188.07438866 -201.11504927 186.34502906 -202 183 C-202.66157618 181.19859981 -203.35022554 179.40696262 -204.0625 177.625 C-207.4996412 167.50243031 -207.52783169 156.67594137 -203.16796875 146.8203125 C-202 145 -202 145 -199 143 C-196.0625 142.5625 -196.0625 142.5625 -193 143 C-187.14367967 148.69364476 -186.43288773 155.33909436 -185.96484375 163.15625 C-186.04690568 172.12835401 -188.48949628 179.80882465 -192 188 C-188.7 191.96 -185.4 195.92 -182 200 C-180.00203461 197.80223807 -178.00954811 195.59897323 -176.05859375 193.359375 C-174.51015991 191.5846994 -172.92085041 189.8455609 -171.3125 188.125 C-169.54188364 183.90924676 -170.53759146 181.84804033 -171.9296875 177.6015625 C-173.32926633 172.89203083 -174.22497328 168.13880935 -175.125 163.3125 C-175.29515625 162.42167725 -175.4653125 161.53085449 -175.640625 160.61303711 C-179.26354044 141.29261851 -182.4425424 113.77360045 -173 95.6875 C-171 93 -171 93 -168 91 C-165.0625 91 -165.0625 91 -162 92 C-150.38495281 104.61062266 -153.37990731 129.37495616 -154 145 C-155.02418023 158.52131278 -157.71036498 172.13109493 -162 185 C-160.94027801 186.84654948 -160.94027801 186.84654948 -159.2890625 188.65234375 C-158.41121094 189.69358398 -158.41121094 189.69358398 -157.515625 190.75585938 C-156.89171875 191.47580078 -156.2678125 192.19574219 -155.625 192.9375 C-154.40268385 194.35799502 -153.18628282 195.78360666 -151.9765625 197.21484375 C-151.43080566 197.84511475 -150.88504883 198.47538574 -150.32275391 199.12475586 C-148.92889127 201.10080955 -148.42076119 202.63673553 -148 205 C-147.34 205 -146.68 205 -146 205 C-145.77054687 204.30777344 -145.54109375 203.61554688 -145.3046875 202.90234375 C-143.7201718 199.37750793 -141.5254325 196.55429269 -139.125 193.5625 C-137.39889248 191.38821916 -135.69083664 189.20181839 -134 187 C-133.21367187 185.97777344 -132.42734375 184.95554688 -131.6171875 183.90234375 C-129.78340357 181.20878142 -129.78340357 181.20878142 -130.10546875 178.63671875 C-130.54826172 177.33154297 -130.54826172 177.33154297 -131 176 C-131.34675781 174.76894531 -131.69351563 173.53789062 -132.05078125 172.26953125 C-132.35375122 171.20943848 -132.35375122 171.20943848 -132.6628418 170.12792969 C-142.3141601 135.72992038 -151.07143719 82.36398361 -133.75 49.0625 C-131.82784541 46.39877343 -130.20793727 45.35462483 -127 44.625 C-123.58553945 44.56081841 -123.05519152 44.9548433 -120.25 47.25 C-100.50443596 76.60330493 -111.0339604 130.31586904 -117.11010742 162.20166016 C-118.08626903 167.09069098 -119.21223496 171.5910519 -120.9921875 176.25 C-121.85267171 179.02304051 -122.22947169 180.37264235 -121.22558594 183.1171875 C-119.83329489 185.24864721 -118.31783673 187.09909041 -116.625 189 C-115.4936696 190.37798579 -114.36345822 191.75689108 -113.234375 193.13671875 C-112.4000293 194.12357666 -112.4000293 194.12357666 -111.54882812 195.13037109 C-109.50882997 197.59290355 -107.68182926 200.17561029 -105.875 202.8125 C-105.35679687 203.56144531 -104.83859375 204.31039062 -104.3046875 205.08203125 C-103.19382461 206.71506622 -102.09556021 208.35665968 -101 210 C-100.28714844 208.96101562 -99.57429688 207.92203125 -98.83984375 206.8515625 C-97.87244778 205.44267266 -96.90499608 204.03382109 -95.9375 202.625 C-95.43597412 201.89418213 -94.93444824 201.16336426 -94.41772461 200.41040039 C-91.66118278 196.39850912 -88.8807459 192.40642708 -86.0625 188.4375 C-80.9929332 182.09187064 -80.9929332 182.09187064 -79.265625 174.6796875 C-80.08761232 171.68030823 -81.13510946 168.8411548 -82.25 165.9375 C-96.97885731 125.67682825 -104.01696332 67.33342926 -86 27 C-83.86121848 22.80005402 -81.46697089 19.80805964 -77 18 C-73.28154782 18 -71.47128299 18.66665349 -68.4375 20.8125 C-54.28928748 37.00132009 -55.76374843 67.07308538 -55.75 87.1875 C-55.74932526 88.07605682 -55.74865051 88.96461365 -55.74795532 89.88009644 C-55.76507852 104.10883183 -56.38450226 117.97962811 -59 132 C-59.18224121 132.97694824 -59.36448242 133.95389648 -59.55224609 134.96044922 C-62.09741177 148.17957623 -64.99571798 161.69180056 -70.3359375 174.10546875 C-71.2983177 176.99978779 -71.2983177 176.99978779 -69.90234375 179.578125 C-69.25394531 180.45984375 -68.60554687 181.3415625 -67.9375 182.25 C-67.19371094 183.28769531 -66.44992188 184.32539063 -65.68359375 185.39453125 C-64.7896326 186.59677829 -63.89505601 187.79856785 -63 189 C-60.82588077 191.97376346 -58.66317755 194.95577205 -56.5 197.9375 C-55.9421582 198.7020752 -55.38431641 199.46665039 -54.80957031 200.25439453 C-50.18066226 206.63848678 -45.98048279 213.19349468 -42 220 C-39.1089825 216.34178692 -36.74343266 212.40620818 -34.3125 208.4375 C-31.34713917 203.6346639 -28.32715627 198.9570417 -24.9375 194.4375 C-20.09131703 187.94637281 -16.08727175 180.98141486 -12 174 C-11.09701172 172.69675781 -11.09701172 172.69675781 -10.17578125 171.3671875 C-8.81001324 169.09183677 -8.81001324 169.09183677 -9.08984375 166.66796875 C-10.05341782 163.84341472 -11.23770971 161.1745147 -12.52636719 158.48413086 C-32.20761939 117.23419251 -37.86330059 64.09443573 -24.09765625 20.0234375 C-21.05349516 11.63845285 -17.67252275 5.78853196 -10.6875 0.125 C-6.87162131 -1.47234457 -3.92989823 -1.14455284 0 0 Z M-11.5234375 7.24609375 C-25.66038677 24.03839593 -25.23366195 53.12152621 -25.25 73.875 C-25.25067474 74.64901154 -25.25134949 75.42302307 -25.25204468 76.2204895 C-25.23481961 88.69965112 -24.58743517 100.75552332 -22 113 C-21.83371094 113.80824219 -21.66742188 114.61648437 -21.49609375 115.44921875 C-18.20636596 130.97186026 -13.46884708 146.94372257 -6 161 C-2.62556474 158.27802352 -1.27782129 154.594569 0.3125 150.6875 C0.61446289 149.9462085 0.91642578 149.20491699 1.22753906 148.44116211 C7.23018002 133.18156884 10.76937625 117.20812944 13 101 C13.17273438 99.76862305 13.34546875 98.53724609 13.5234375 97.26855469 C14.04084465 93.0878808 14.1613863 88.96682714 14.16796875 84.7578125 C14.17129715 83.99056854 14.17462555 83.22332458 14.17805481 82.43283081 C14.18308774 80.81427604 14.18546427 79.19571102 14.18530273 77.57714844 C14.18746342 75.16582883 14.20558629 72.7549874 14.22460938 70.34375 C14.29770491 50.42432637 14.13176928 22.43326177 -0.0390625 6.7421875 C-4.29688038 2.95934532 -7.38012562 3.34713104 -11.5234375 7.24609375 Z M61.44140625 11.71484375 C43.10008014 40.79255588 46.52174574 86.61668386 53.58154297 118.63769531 C56.85305988 132.65704073 61.16130082 147.26544982 68 160 C68.66 160.33 69.32 160.66 70 161 C88.38020942 120.181007 97.39204036 67.66592985 83 24 C79.29580108 14.13721343 79.29580108 14.13721343 72 7 C66.670652 5.84144609 64.52638125 7.66329695 61.44140625 11.71484375 Z M-76 23 C-86.88792548 32.70897813 -87.87624959 52.23472653 -89 66 C-89.15257358 69.14478327 -89.20858049 72.28545086 -89.23828125 75.43359375 C-89.2480751 76.30086594 -89.25786896 77.16813812 -89.26795959 78.06169128 C-89.54407193 108.8661715 -87.58256356 140.02640628 -76 169 C-75.34 169 -74.68 169 -74 169 C-68.87868467 153.56565791 -65.53860163 138.05583111 -63 122 C-62.86577637 121.15646973 -62.73155273 120.31293945 -62.59326172 119.44384766 C-58.58291074 92.88302803 -55.45760287 49.54908656 -71 26 C-73.56399774 23.98880254 -73.56399774 23.98880254 -76 23 Z M124.19140625 37.8828125 C105.73002278 70.68959887 115.8591993 122.94500172 125.36328125 157.0234375 C126.45546864 160.73187768 127.54983551 164.41275099 129 168 C129.66 168.33 130.32 168.66 131 169 C140.72350292 142.80860702 144.22919974 115.42323017 144.375 87.625 C144.38294586 86.83342499 144.39089172 86.04184998 144.39907837 85.22628784 C144.52524819 68.8867655 143.63045441 50.12205255 135.0625 35.75 C133.11203095 33.84928894 133.11203095 33.84928894 130.5625 33.3125 C127.53155145 34.12568132 126.04346406 35.36308495 124.19140625 37.8828125 Z M-127 50 C-137.3359686 63.18727029 -136.41635113 83.99069397 -136.375 100.0625 C-136.37478851 100.83225159 -136.37457703 101.60200317 -136.37435913 102.39508057 C-136.31030452 126.05885703 -132.87012883 149.07281649 -127 172 C-126.01 171.505 -126.01 171.505 -125 171 C-124.24864526 168.73962187 -123.65645834 166.56569785 -123.125 164.25 C-122.95572998 163.52280762 -122.78645996 162.79561523 -122.61206055 162.04638672 C-115.51351724 129.72202048 -110.79365082 91.2193887 -120.375 58.9375 C-120.57182373 58.26372314 -120.76864746 57.58994629 -120.97143555 56.89575195 C-121.93381383 53.96961728 -122.5518384 52.29688684 -125.1640625 50.56640625 C-125.76992187 50.37949219 -126.37578125 50.19257812 -127 50 Z M171 66 C155.18413981 96.19391491 162.17565308 137.5649822 169.97265625 169.12109375 C170.99699599 171.99158191 171.82506237 173.00035916 174 175 C177.56044942 162.43288012 180.37142726 149.96805584 182 137 C182.09643799 136.23389404 182.19287598 135.46778809 182.29223633 134.6784668 C184.55989056 114.65728098 186.76834472 83.65251707 175 66 C173.68 66 172.36 66 171 66 Z M-167 96 C-178.34306801 120.39310256 -173.6399121 150.87600825 -167 176 C-166.34 176 -165.68 176 -165 176 C-155.78032022 136.45283837 -155.78032022 136.45283837 -164 98 C-164.99 97.34 -165.98 96.68 -167 96 Z M207 111 C197.47394638 124.3462705 199.76642946 146.51021194 202.3125 161.8125 C203.37874825 167.73351183 204.81808507 173.38936161 207 179 C207.66 179 208.32 179 209 179 C214.36709099 158.9385434 220.42701934 132.80956893 210.51953125 113.046875 C210.01808594 112.37140625 209.51664062 111.6959375 209 111 C208.34 111 207.68 111 207 111 Z M-197 148 C-201.77310453 154.68234635 -201.83358638 162.56020437 -200.62109375 170.47265625 C-199.77081135 174.4830433 -198.69300505 178.25120309 -197 182 C-194.59247046 181.05352558 -194.59247046 181.05352558 -193.375 177.5625 C-191.82634968 172.66370816 -191.67141004 167.90677556 -191.625 162.8125 C-191.61130371 162.04043213 -191.59760742 161.26836426 -191.58349609 160.47290039 C-191.62253659 155.57648396 -192.41119234 152.29413335 -195 148 C-195.66 148 -196.32 148 -197 148 Z M236 148 C230.78440345 156.16354243 230.60817111 166.68012578 232.671875 176.05078125 C233.35396642 178.06809881 234.16114436 180.04267017 235 182 C238.00354375 180.49822813 238.26347525 178.16728791 239.3359375 175.1015625 C241.59954643 167.93790602 242.52065779 158.96789913 239.625 151.875 C238.30892294 148.92171131 238.30892294 148.92171131 236 148 Z M-210 211 C-213.34638084 217.78239688 -214.38704926 223.96846687 -214.375 231.4375 C-214.37628906 232.21851074 -214.37757813 232.99952148 -214.37890625 233.80419922 C-214.3056309 237.6486569 -214.17003932 240.74494102 -212 244 C-210.02 243.505 -210.02 243.505 -208 243 C-204.26052212 231.29187282 -204.26052212 222.70812718 -208 211 C-208.66 211 -209.32 211 -210 211 Z M222 211 C221.51801537 212.24891614 221.03954323 213.49918808 220.5625 214.75 C220.29566406 215.44609375 220.02882813 216.1421875 219.75390625 216.859375 C216.58113806 225.86806395 216.94331427 235.37954282 221 244 C221.99 244 222.98 244 224 244 C226.48635028 238.93521239 227.49148459 234.81013331 227.375 229.125 C227.36774902 228.42753662 227.36049805 227.73007324 227.35302734 227.01147461 C227.20404751 221.4363903 226.30563122 217.05465307 224 212 C223.34 211.67 222.68 211.34 222 211 Z M-182 212 C-182.63381508 213.32916561 -183.25648484 214.66364609 -183.875 216 C-184.22304687 216.7425 -184.57109375 217.485 -184.9296875 218.25 C-187.93117893 225.96186118 -188.35378013 232.97891444 -188.3125 241.1875 C-188.30903564 242.29504639 -188.30557129 243.40259277 -188.30200195 244.54370117 C-188.27995774 258.73716456 -188.27995774 258.73716456 -182 271 C-181.34 271 -180.68 271 -180 271 C-179.34865075 269.43979133 -178.70417036 267.87671421 -178.0625 266.3125 C-177.70285156 265.44238281 -177.34320313 264.57226562 -176.97265625 263.67578125 C-171.43123961 248.43132183 -173.51331867 229.87806048 -179 215.046875 C-179.82399454 212.83494596 -179.82399454 212.83494596 -182 212 Z M192 216 C187.08050353 229.11865725 185.48903831 242.3228544 185.60888672 256.22680664 C185.62497256 258.43373597 185.60892124 260.63882839 185.58984375 262.84570312 C185.57785902 270.43824028 186.06460684 277.79344069 187.3359375 285.28515625 C187.45216461 285.9861998 187.56839172 286.68724335 187.68814087 287.40953064 C188.45489356 291.49168709 189.63692599 294.58432902 192 298 C194.88955224 295.57051613 195.69517854 293.43471658 196.625 289.8125 C196.86476563 288.91144531 197.10453125 288.01039063 197.3515625 287.08203125 C202.05446257 264.72909055 201.18018352 239.73688371 194 218 C193.34 217.34 192.68 216.68 192 216 Z M-147 217 C-160.07746964 244.68528148 -161.08813369 284.16476304 -152.0546875 313.01953125 C-150.38563118 317.37430787 -150.38563118 317.37430787 -146.87109375 320.21875 C-146.25363281 320.4765625 -145.63617188 320.734375 -145 321 C-137.70664198 306.03852644 -136.48497907 290.40441706 -136 274 C-135.95875 272.95457031 -135.9175 271.90914063 -135.875 270.83203125 C-135.47689911 252.79308455 -138.44380821 233.45619612 -146 217 C-146.33 217 -146.66 217 -147 217 Z M154 217 C140.86774666 248.08432306 137.36617207 297.14642676 150.08203125 328.68359375 C151.23557773 331.10994195 151.23557773 331.10994195 153 334 C155.78196955 333.00685429 156.80898026 332.37882366 158.16015625 329.69921875 C159.22188058 326.15554142 160.17461534 322.60495107 161 319 C161.15388184 318.34290039 161.30776367 317.68580078 161.46630859 317.00878906 C167.08799214 291.32529212 166.97279919 259.34333918 160 234 C159.66331299 232.74968994 159.66331299 232.74968994 159.31982422 231.47412109 C157.99054906 226.61125916 156.55207841 221.79617672 155 217 C154.67 217 154.34 217 154 217 Z M-101 223 C-117.2724112 257.69139579 -120.52113931 305.35105715 -109.0625 341.9375 C-106.44317727 349.10043033 -106.44317727 349.10043033 -101 354.125 C-98.88130161 354.15837203 -98.88130161 354.15837203 -97 352.6875 C-91.90318984 345.83866134 -90.41328398 337.91937036 -88.8125 329.6875 C-88.64556641 328.83486572 -88.47863281 327.98223145 -88.30664062 327.10375977 C-82.00862931 292.70767638 -85.18908827 254.84440001 -100 223 C-100.33 223 -100.66 223 -101 223 Z M102 226 C88.29846545 265.50373706 84.61983175 308.23647563 92.875 349.375 C93.02420898 350.12990723 93.17341797 350.88481445 93.32714844 351.66259766 C94.73384011 358.06462694 96.88767599 364.61681347 102 369 C104.04417253 369.30516042 104.04417253 369.30516042 106 368 C124.41246902 342.6828551 119.58443937 296.17717223 115.1484375 267.2890625 C112.80835886 253.05094066 109.15389074 239.47480999 104 226 C103.34 226 102.68 226 102 226 Z M-42 234 C-59.92002091 273.52571988 -68.66781065 322.79058477 -55 365 C-52.8659086 370.16643032 -50.53136686 375.21065745 -46.0625 378.75 C-42.0000615 380.40813816 -40.15320572 380.48328776 -36 379 C-24.49132391 369.14745047 -22.4838707 348.17045631 -21.3125 333.9375 C-21.18783561 331.62601439 -21.08355166 329.31333657 -21 327 C-20.95875 325.87851562 -20.9175 324.75703125 -20.875 323.6015625 C-20.33859548 293.22765644 -25.90424582 260.70787278 -41 234 C-41.33 234 -41.66 234 -42 234 Z M33 234 C29.2932391 240.95957444 26.39385276 247.94923098 23.9375 255.4375 C23.59315918 256.48301025 23.24881836 257.52852051 22.89404297 258.60571289 C19.88535719 267.96598948 17.62756132 277.31002322 16 287 C15.77570313 288.24007812 15.55140625 289.48015625 15.3203125 290.7578125 C12.25784001 311.18827969 12.19741535 334.69074106 16 355 C16.12890625 355.70318359 16.2578125 356.40636719 16.390625 357.13085938 C18.32672081 367.3581062 20.61456566 378.93837342 28.46875 386.3203125 C30.98857797 388.31946463 30.98857797 388.31946463 34.5625 388.0625 C39.27610671 386.60556702 40.61414483 384.48755891 42.9597168 380.27734375 C45.53426545 375.32770569 47.2386376 370.45745633 48.625 365.0625 C48.82867187 364.33482422 49.03234375 363.60714844 49.2421875 362.85742188 C52.89269367 348.94571729 53.3840094 334.55245336 53.3125 320.25 C53.31034485 319.46630035 53.3081897 318.68260071 53.30596924 317.87515259 C53.25106853 305.37984592 52.68081906 293.24553827 50 281 C49.70198486 279.62811523 49.70198486 279.62811523 49.39794922 278.22851562 C44.27934699 254.80272271 44.27934699 254.80272271 33 234 Z " fill="#50AA49" transform="translate(235,14)"/>
</svg>
